<svg xmlns="http://www.w3.org/2000/svg" viewBox="0 0 490.1 490.1">
  <path fill="#2C2F33" d="M329.1 412.15v-43.6c0-12.3-5.4-23.7-14.8-31.5-36-29.5-74.6-50.3-88.5-57.3v-52.2c8.1-7.3 12.8-17.6 12.8-28.7v-63.6c0-37.1-30.1-67.2-67.2-67.2h-13.7c-37.1 0-67.2 30.1-67.2 67.2v63.6c0 11 4.7 21.4 12.8 28.7v52.2c-13.9 7.1-52.5 27.8-88.5 57.3-9.4 7.7-14.8 19.2-14.8 31.5v43.6c0 5.5 4.4 9.9 9.9 9.9h309.3c5.5 0 9.9-4.5 9.9-9.9zm-19.8-9.9H19.8v-33.7c0-6.3 2.8-12.2 7.6-16.2 38.7-31.8 80.6-52.9 88.6-56.8 4.4-2.2 7.1-6.5 7.1-11.4v-61.3c0-3.3-1.7-6.4-4.4-8.2-5.3-3.5-8.4-9.3-8.4-15.6v-63.6c0-26.1 21.3-47.4 47.4-47.4h13.7c26.1 0 47.4 21.3 47.4 47.4v63.6c0 6.3-3.1 12.1-8.4 15.6-2.8 1.8-4.4 4.9-4.4 8.2v61.2c0 4.9 2.7 9.3 7.1 11.4 8 3.9 49.9 25.1 88.6 56.8 4.8 4 7.6 9.9 7.6 16.2v33.8z"/>
  <path fill="#EF6C00" d="M337.7 272.35l41-39.3h77.8c18.6 0 33.6-15.1 33.6-33.6v-88.1c0-18.6-15.1-33.6-33.6-33.6H312.2c-18.6 0-33.6 15.1-33.6 33.6v88.1c0 18.6 15.1 33.6 33.6 33.6h8.7v32.2c0 4 2.4 7.5 6 9.1 1.3.5 2.6.8 3.9.8 2.6-.1 5-1 6.9-2.8zm-25.5-59.1c-7.6 0-13.8-6.2-13.8-13.8v-88.1c0-7.6 6.2-13.8 13.8-13.8h144.3c7.6 0 13.8 6.2 13.8 13.8v88.1c0 7.6-6.2 13.8-13.8 13.8h-81.8c-2.6 0-5 1-6.8 2.8l-27.2 26v-18.9c0-5.5-4.4-9.9-9.9-9.9h-18.6z"/>
  <path fill="#EF6C00" d="M333.8 147.95h101.1c5.5 0 9.9-4.4 9.9-9.9s-4.4-9.9-9.9-9.9H333.8c-5.5 0-9.9 4.4-9.9 9.9 0 5.4 4.5 9.9 9.9 9.9zm101.2 36.1c5.5 0 9.9-4.4 9.9-9.9s-4.4-9.9-9.9-9.9H333.8c-5.5 0-9.9 4.4-9.9 9.9s4.4 9.9 9.9 9.9H435z"/>
</svg>
