<svg xmlns="http://www.w3.org/2000/svg" viewBox="0 0 492.8 492.8">
  <path fill="#EF6C00" d="M321.8 176.05c1.9 1.9 4.5 2.9 7 2.9s5.1-1 7-2.9l30.8-30.8c7 4.7 15.2 7.2 23.8 7.2 11.4 0 22.2-4.5 30.3-12.5 16.7-16.7 16.7-43.9 0-60.6-8.1-8.1-18.9-12.5-30.3-12.5s-22.2 4.5-30.3 12.5c-13.9 13.9-16.2 35.1-6.9 51.4l-31.3 31.3c-3.9 3.8-3.9 10.1-.1 14zm52.3-82.8c4.4-4.4 10.1-6.7 16.3-6.7 6.2 0 11.9 2.4 16.3 6.7 9 9 9 23.6 0 32.6-4.4 4.4-10.1 6.8-16.3 6.8-6.2 0-11.9-2.4-16.3-6.8-9-9-9-23.6 0-32.6zm-140.8-2.5v47.5c0 5.5 4.4 9.9 9.9 9.9s9.9-4.4 9.9-9.9v-46c20.4-3.2 36.1-20.9 36.1-42.3 0-23.6-19.2-42.8-42.8-42.8s-42.8 19.2-42.8 42.8c0 19.1 12.5 35.2 29.7 40.8zm13.1-63.8c12.7 0 23 10.3 23 23s-10.3 23-23 23-23-10.3-23-23 10.3-23 23-23zm-144 125.5c7.7 0 15.1-2.1 21.6-5.9l31.3 31.3c1.9 1.9 4.5 2.9 7 2.9s5.1-1 7-2.9c3.9-3.9 3.9-10.1 0-14l-31-31c10.7-16.6 8.9-39-5.7-53.6-8.1-8.1-18.9-12.5-30.3-12.5s-22.2 4.5-30.3 12.5c-16.7 16.7-16.7 43.9 0 60.6 8.2 8.1 19 12.6 30.4 12.6zm-16.3-59.2c4.4-4.4 10.1-6.7 16.3-6.7s11.9 2.4 16.3 6.7c9 9 9 23.6 0 32.6-4.4 4.4-10.1 6.8-16.3 6.8-6.2 0-11.9-2.4-16.3-6.8-9-9-9-23.6 0-32.6z"/>
  <path fill="#2C2F33" d="M192.7 318.85v43c-12.6 6.4-44.9 24-75 48.7-8.4 6.9-13.2 17.1-13.2 28v37.2c0 5.5 4.4 9.9 9.9 9.9s9.9-4.4 9.9-9.9v-37.2c0-4.9 2.2-9.6 6-12.7 32.9-27 68.5-45 75.3-48.3 4.3-2.1 6.9-6.3 6.9-11.1v-52.3c0-3.3-1.7-6.4-4.4-8.2-4.1-2.7-6.5-7.3-6.5-12.1v-54.3c0-21.5 17.5-39 39-39h11.7c21.5 0 39 17.5 39 39v54.3c0 4.9-2.4 9.4-6.5 12.1-2.8 1.8-4.4 4.9-4.4 8.2v52.3c0 4.7 2.7 9 6.9 11.1 6.8 3.3 42.4 21.3 75.3 48.3 3.8 3.1 6 7.7 6 12.7v37.2c0 5.5 4.4 9.9 9.9 9.9s9.9-4.4 9.9-9.9v-37.2c0-10.9-4.8-21.1-13.2-28-30.1-24.8-62.4-42.3-75-48.7v-43c6.9-6.4 10.9-15.5 10.9-25.1v-54.3c0-32.4-26.4-58.8-58.8-58.8h-11.7c-32.4 0-58.8 26.4-58.8 58.8v54.3c0 9.6 4 18.7 10.9 25.1z"/>
</svg>
