<svg xmlns="http://www.w3.org/2000/svg" viewBox="0 0 490.1 490.1"><path fill="#2C2F33" d="M356.32 424l2.5-2.2c.4-.3.7-.6 1-1 1.3-1.5 30.5-35.2 41.6-61.1h5.3c15.1 0 27.4-12.3 27.4-27.4V289c0-15.1-12.3-27.4-27.4-27.4h-5.9c-9.1-23.7-24.6-45.1-45.2-62.5-3-10.7-.8-22.1 6.7-34 4.2-6.7 4.2-15.1-.1-21.8-4.3-6.7-11.8-10.3-19.7-9.3-28.9 3.6-46.2 16.7-56.3 28.9-9.5-2.6-19.3-4.6-29.2-5.7-5.4-.6-10.4 3.2-11 8.7-.6 5.4 3.2 10.4 8.7 11 11 1.3 21.9 3.7 32.3 7 4.2 1.3 8.7-.3 11.2-3.9 6.8-10.1 20.5-22.9 46.7-26.2.2 0 .4 0 .6.3s.1.5 0 .6c-10.4 16.6-13.5 33.9-8.9 50.1.1 2.9 1.4 5.6 3.7 7.4 21.1 17 36.4 38.6 44.2 62.5 1.3 4.1 5.2 6.8 9.4 6.8h12.8c4.2 0 7.6 3.4 7.6 7.6v43.3c0 4.2-3.4 7.6-7.6 7.6h-12.1c-4.3 0-8.2 2.8-9.5 7-5.6 18.3-30.2 49.3-39.8 60.4l-2.2 1.9c-20.6 18.6-22.7 40.6-22.8 47.2v13.9h-57.1V457c0-2.8-1.2-5.5-3.3-7.4-2.1-1.9-4.9-2.8-7.7-2.5-14.6 1.5-29.3 1.3-43.5-.6-2.8-.4-5.7.5-7.8 2.4-2.2 1.9-3.4 4.6-3.4 7.5v13.9h-57.1V466c-.5-10.5-3.8-37.1-24.6-58.5-9.8-10.1-18.6-23.5-26.2-39.7-.1-.1-.1-.2-.2-.4-4.5-8.6-7.9-17.7-10.2-27.3l-.1-.4c0-.1-.1-.2-.1-.3-3.6-12-3.2-27.1-3.2-27.2v-.3c0-6.6.6-13.3 1.6-19.8.9-5.4-2.7-10.5-8.1-11.4s-10.5 2.7-11.4 8.1c-1.3 7.5-1.9 15.2-1.9 22.9-.1 2-.3 18.8 4 33.3 2.6 10.7 6.6 21.2 11.7 31.2 8.4 18.2 18.5 33.3 29.8 45 15.9 16.4 18.6 37 19 45.4v4.1c0 .4 0 .7.1 1.3.7 10.1 9.2 18.1 19.3 18.1h57.9c10.7 0 19.4-8.7 19.4-19.4v-3.3c8.7.7 17.3.8 26.1.4v2.9c0 10.7 8.7 19.4 19.4 19.4h57.9c10.7 0 19.4-8.7 19.4-19.4v-14.1c.2-3.1 1.3-19.1 16.3-32.6z"/><path fill="#EF6C00" d="M56.82 191.4c0 44.9 36.5 81.5 81.5 81.5 44.9 0 81.5-36.5 81.5-81.5 0-44.9-36.5-81.5-81.5-81.5-44.9 0-81.5 36.5-81.5 81.5zm143.2 0c0 34-27.7 61.7-61.7 61.7s-61.7-27.7-61.7-61.7 27.7-61.7 61.7-61.7 61.7 27.7 61.7 61.7zm88.2-134.6c0-31.3-25.5-56.8-56.8-56.8s-56.8 25.5-56.8 56.8 25.5 56.8 56.8 56.8 56.8-25.5 56.8-56.8zm-93.9 0c0-20.4 16.6-37 37-37s37 16.6 37 37-16.6 37-37 37-37-16.6-37-37z"/></svg>